# xmcd
#
# Track frame offsets:
#	150
#	15196
#	31260
#	47961
#	65287
#	85107
#	96866
#	114548
#	126364
#	141148
#
# Disc length: 2144 seconds
# Revision: 0
# Processed by: cddbd v1.5.2PL0 Copyright (c) Steve Scherf et al.
# Submitted via: dBpowerAMP V12.0
#
DISCID=7c085e0a
DTITLE=The Delta Flyers - Sixteen Bars
DYEAR=2010
DGENRE=Blues
TTITLE0=61 Highway Blues
TTITLE1=Sixteen Bars
TTITLE2=Mentone, Alabama
TTITLE3=Baby's So Fine
TTITLE4=Sunflower River Rag
TTITLE5=Poison Took My Baby
TTITLE6=Dockery Farm
TTITLE7=Fishin' Little Mama
TTITLE8=Baby Jane
TTITLE9=I Got To Testify
EXTD=
EXTT0=
EXTT1=
EXTT2=
EXTT3=
EXTT4=
EXTT5=
EXTT6=
EXTT7=
EXTT8=
EXTT9=
PLAYORDER=
